<mxfile host="app.diagrams.net" modified="2024-05-31T07:17:06.352Z" agent="Mozilla/5.0 (Windows NT 10.0; Win64; x64) AppleWebKit/537.36 (KHTML, like Gecko) Chrome/125.0.0.0 Safari/537.36" etag="80se-bXgBj7aspYuPskO" version="24.2.8" type="github">
  <diagram name="第 1 页" id="hDYtWIxzfEqBtP1Cjkg2">
    <mxGraphModel dx="1687" dy="878" grid="1" gridSize="10" guides="1" tooltips="1" connect="1" arrows="1" fold="1" page="1" pageScale="1" pageWidth="827" pageHeight="1169" math="0" shadow="0">
      <root>
        <mxCell id="0" />
        <mxCell id="1" parent="0" />
        <mxCell id="8SR--FJlMm__Suw2POkN-6" value="" style="rounded=0;whiteSpace=wrap;html=1;fillColor=#dae8fc;strokeColor=#6c8ebf;" vertex="1" parent="1">
          <mxGeometry x="140" y="464" width="660" height="130" as="geometry" />
        </mxCell>
        <mxCell id="8SR--FJlMm__Suw2POkN-4" value="&lt;font style=&quot;font-size: 16px;&quot;&gt;履带式移动底盘&lt;/font&gt;" style="rounded=1;whiteSpace=wrap;html=1;fillColor=#fff2cc;strokeColor=#d6b656;" vertex="1" parent="1">
          <mxGeometry x="320" y="474" width="140" height="50" as="geometry" />
        </mxCell>
        <mxCell id="8SR--FJlMm__Suw2POkN-7" value="&lt;font style=&quot;font-size: 16px;&quot;&gt;激光雷达&lt;/font&gt;" style="rounded=1;whiteSpace=wrap;html=1;fillColor=#fff2cc;strokeColor=#d6b656;" vertex="1" parent="1">
          <mxGeometry x="320" y="534" width="140" height="50" as="geometry" />
        </mxCell>
        <mxCell id="8SR--FJlMm__Suw2POkN-8" value="&lt;font style=&quot;font-size: 16px;&quot;&gt;摄像头模块&lt;/font&gt;" style="rounded=1;whiteSpace=wrap;html=1;fillColor=#fff2cc;strokeColor=#d6b656;" vertex="1" parent="1">
          <mxGeometry x="640" y="474" width="140" height="50" as="geometry" />
        </mxCell>
        <mxCell id="8SR--FJlMm__Suw2POkN-9" value="&lt;font style=&quot;font-size: 16px;&quot;&gt;机械臂&lt;/font&gt;" style="rounded=1;whiteSpace=wrap;html=1;fillColor=#fff2cc;strokeColor=#d6b656;" vertex="1" parent="1">
          <mxGeometry x="480" y="474" width="140" height="50" as="geometry" />
        </mxCell>
        <mxCell id="8SR--FJlMm__Suw2POkN-10" value="&lt;font face=&quot;Helvetica&quot; style=&quot;font-size: 18px;&quot;&gt;硬&lt;/font&gt;&lt;div&gt;&lt;font face=&quot;Helvetica&quot; style=&quot;font-size: 18px;&quot;&gt;件&lt;/font&gt;&lt;/div&gt;" style="rounded=0;whiteSpace=wrap;html=1;fillColor=#dae8fc;strokeColor=#6c8ebf;" vertex="1" parent="1">
          <mxGeometry x="60" y="464" width="60" height="130" as="geometry" />
        </mxCell>
        <mxCell id="8SR--FJlMm__Suw2POkN-14" value="&lt;font style=&quot;font-size: 16px;&quot;&gt;Jetson Nano&lt;/font&gt;" style="rounded=1;whiteSpace=wrap;html=1;fillColor=#fff2cc;strokeColor=#d6b656;" vertex="1" parent="1">
          <mxGeometry x="160" y="474" width="140" height="50" as="geometry" />
        </mxCell>
        <mxCell id="8SR--FJlMm__Suw2POkN-15" value="&lt;font face=&quot;Helvetica&quot; style=&quot;font-size: 18px;&quot;&gt;系&lt;/font&gt;&lt;div&gt;&lt;font face=&quot;Helvetica&quot; style=&quot;font-size: 18px;&quot;&gt;统&lt;/font&gt;&lt;/div&gt;" style="rounded=0;whiteSpace=wrap;html=1;fillColor=#dae8fc;strokeColor=#6c8ebf;" vertex="1" parent="1">
          <mxGeometry x="60" y="374" width="60" height="70" as="geometry" />
        </mxCell>
        <mxCell id="8SR--FJlMm__Suw2POkN-16" value="&lt;font style=&quot;font-size: 16px;&quot;&gt;显示屏&lt;/font&gt;" style="rounded=1;whiteSpace=wrap;html=1;fillColor=#fff2cc;strokeColor=#d6b656;" vertex="1" parent="1">
          <mxGeometry x="160" y="534" width="140" height="50" as="geometry" />
        </mxCell>
        <mxCell id="8SR--FJlMm__Suw2POkN-17" value="" style="rounded=0;whiteSpace=wrap;html=1;fillColor=#dae8fc;strokeColor=#6c8ebf;" vertex="1" parent="1">
          <mxGeometry x="140" y="374" width="660" height="70" as="geometry" />
        </mxCell>
        <mxCell id="8SR--FJlMm__Suw2POkN-18" value="&lt;font style=&quot;font-size: 16px;&quot;&gt;Ubuntu18.04&lt;/font&gt;" style="rounded=1;whiteSpace=wrap;html=1;fillColor=#fff2cc;strokeColor=#d6b656;" vertex="1" parent="1">
          <mxGeometry x="250" y="384" width="140" height="50" as="geometry" />
        </mxCell>
        <mxCell id="8SR--FJlMm__Suw2POkN-19" value="&lt;font style=&quot;font-size: 16px;&quot;&gt;ROS&lt;/font&gt;" style="rounded=1;whiteSpace=wrap;html=1;fillColor=#fff2cc;strokeColor=#d6b656;" vertex="1" parent="1">
          <mxGeometry x="510" y="384" width="140" height="50" as="geometry" />
        </mxCell>
        <mxCell id="8SR--FJlMm__Suw2POkN-20" value="&lt;span style=&quot;font-size: 18px;&quot;&gt;基&lt;/span&gt;&lt;div&gt;&lt;span style=&quot;font-size: 18px;&quot;&gt;本&lt;/span&gt;&lt;/div&gt;&lt;div&gt;&lt;span style=&quot;font-size: 18px;&quot;&gt;功&lt;/span&gt;&lt;/div&gt;&lt;div&gt;&lt;span style=&quot;font-size: 18px;&quot;&gt;能&lt;/span&gt;&lt;/div&gt;" style="rounded=0;whiteSpace=wrap;html=1;fillColor=#dae8fc;strokeColor=#6c8ebf;" vertex="1" parent="1">
          <mxGeometry x="60" y="224" width="60" height="130" as="geometry" />
        </mxCell>
        <mxCell id="8SR--FJlMm__Suw2POkN-21" value="" style="rounded=0;whiteSpace=wrap;html=1;fillColor=#dae8fc;strokeColor=#6c8ebf;" vertex="1" parent="1">
          <mxGeometry x="140" y="224" width="660" height="130" as="geometry" />
        </mxCell>
        <mxCell id="8SR--FJlMm__Suw2POkN-22" value="&lt;font style=&quot;font-size: 16px;&quot;&gt;机械臂轨迹规划&lt;/font&gt;" style="rounded=1;whiteSpace=wrap;html=1;fillColor=#fff2cc;strokeColor=#d6b656;" vertex="1" parent="1">
          <mxGeometry x="160" y="294" width="140" height="50" as="geometry" />
        </mxCell>
        <mxCell id="8SR--FJlMm__Suw2POkN-23" value="&lt;span style=&quot;font-size: 16px;&quot;&gt;操控机器人运动&lt;/span&gt;" style="rounded=1;whiteSpace=wrap;html=1;fillColor=#fff2cc;strokeColor=#d6b656;" vertex="1" parent="1">
          <mxGeometry x="160" y="234" width="140" height="50" as="geometry" />
        </mxCell>
        <mxCell id="8SR--FJlMm__Suw2POkN-24" value="&lt;font style=&quot;font-size: 16px;&quot;&gt;视觉图像获取&lt;/font&gt;" style="rounded=1;whiteSpace=wrap;html=1;fillColor=#fff2cc;strokeColor=#d6b656;" vertex="1" parent="1">
          <mxGeometry x="480" y="234" width="140" height="50" as="geometry" />
        </mxCell>
        <mxCell id="8SR--FJlMm__Suw2POkN-25" value="&lt;font style=&quot;font-size: 16px;&quot;&gt;底盘路径规划&lt;/font&gt;" style="rounded=1;whiteSpace=wrap;html=1;fillColor=#fff2cc;strokeColor=#d6b656;" vertex="1" parent="1">
          <mxGeometry x="320" y="234" width="140" height="50" as="geometry" />
        </mxCell>
        <mxCell id="8SR--FJlMm__Suw2POkN-26" value="&lt;span style=&quot;font-size: 18px;&quot;&gt;具&lt;/span&gt;&lt;div&gt;&lt;span style=&quot;font-size: 18px;&quot;&gt;身&lt;/span&gt;&lt;div&gt;&lt;span style=&quot;font-size: 18px;&quot;&gt;智&lt;/span&gt;&lt;div&gt;&lt;span style=&quot;font-size: 18px;&quot;&gt;能&lt;/span&gt;&lt;/div&gt;&lt;/div&gt;&lt;/div&gt;" style="rounded=0;whiteSpace=wrap;html=1;fillColor=#dae8fc;strokeColor=#6c8ebf;" vertex="1" parent="1">
          <mxGeometry x="60" y="34" width="60" height="170" as="geometry" />
        </mxCell>
        <mxCell id="8SR--FJlMm__Suw2POkN-27" value="" style="rounded=0;whiteSpace=wrap;html=1;fillColor=#dae8fc;strokeColor=#6c8ebf;" vertex="1" parent="1">
          <mxGeometry x="140" y="34" width="660" height="170" as="geometry" />
        </mxCell>
        <mxCell id="8SR--FJlMm__Suw2POkN-33" value="&lt;font style=&quot;font-size: 16px;&quot;&gt;目标检测&lt;/font&gt;" style="rounded=1;whiteSpace=wrap;html=1;fillColor=#fff2cc;strokeColor=#d6b656;" vertex="1" parent="1">
          <mxGeometry x="640" y="234" width="140" height="50" as="geometry" />
        </mxCell>
        <mxCell id="8SR--FJlMm__Suw2POkN-34" value="&lt;font style=&quot;font-size: 16px;&quot;&gt;机械臂抓取&lt;/font&gt;" style="rounded=1;whiteSpace=wrap;html=1;fillColor=#fff2cc;strokeColor=#d6b656;" vertex="1" parent="1">
          <mxGeometry x="320" y="294" width="140" height="50" as="geometry" />
        </mxCell>
        <mxCell id="8SR--FJlMm__Suw2POkN-35" value="&lt;font style=&quot;font-size: 16px;&quot;&gt;语音听写&lt;/font&gt;" style="rounded=1;whiteSpace=wrap;html=1;fillColor=#fff2cc;strokeColor=#d6b656;" vertex="1" parent="1">
          <mxGeometry x="480" y="294" width="140" height="50" as="geometry" />
        </mxCell>
        <mxCell id="8SR--FJlMm__Suw2POkN-37" value="&lt;font style=&quot;font-size: 16px;&quot;&gt;大模型&lt;/font&gt;&lt;div style=&quot;font-size: 16px;&quot;&gt;&lt;br&gt;&lt;/div&gt;&lt;div&gt;&lt;br&gt;&lt;/div&gt;&lt;div&gt;&lt;br&gt;&lt;/div&gt;&lt;div&gt;&lt;br&gt;&lt;/div&gt;" style="rounded=1;whiteSpace=wrap;html=1;fillColor=none;shadow=1;glass=0;" vertex="1" parent="1">
          <mxGeometry x="160" y="104" width="620" height="90" as="geometry" />
        </mxCell>
        <mxCell id="8SR--FJlMm__Suw2POkN-36" value="&lt;font style=&quot;font-size: 16px;&quot;&gt;语音合成&lt;/font&gt;" style="rounded=1;whiteSpace=wrap;html=1;fillColor=#fff2cc;strokeColor=#d6b656;" vertex="1" parent="1">
          <mxGeometry x="640" y="294" width="140" height="50" as="geometry" />
        </mxCell>
        <mxCell id="8SR--FJlMm__Suw2POkN-29" value="&lt;span style=&quot;font-size: 16px;&quot;&gt;智能体Agent大语言模型&lt;/span&gt;" style="rounded=1;whiteSpace=wrap;html=1;fillColor=#fff2cc;strokeColor=#d6b656;" vertex="1" parent="1">
          <mxGeometry x="220" y="134" width="220" height="50" as="geometry" />
        </mxCell>
        <mxCell id="8SR--FJlMm__Suw2POkN-30" value="&lt;font style=&quot;font-size: 16px;&quot;&gt;多模态视觉语言大模型&lt;/font&gt;" style="rounded=1;whiteSpace=wrap;html=1;fillColor=#fff2cc;strokeColor=#d6b656;" vertex="1" parent="1">
          <mxGeometry x="510" y="134" width="200" height="50" as="geometry" />
        </mxCell>
        <mxCell id="8SR--FJlMm__Suw2POkN-38" value="" style="endArrow=none;html=1;rounded=0;exitX=0;exitY=0.25;exitDx=0;exitDy=0;entryX=1;entryY=0.25;entryDx=0;entryDy=0;" edge="1" parent="1" source="8SR--FJlMm__Suw2POkN-37" target="8SR--FJlMm__Suw2POkN-37">
          <mxGeometry width="50" height="50" relative="1" as="geometry">
            <mxPoint x="490" y="254" as="sourcePoint" />
            <mxPoint x="540" y="204" as="targetPoint" />
          </mxGeometry>
        </mxCell>
        <mxCell id="8SR--FJlMm__Suw2POkN-41" value="&lt;font style=&quot;font-size: 16px;&quot;&gt;指令理解&lt;/font&gt;" style="rounded=1;whiteSpace=wrap;html=1;fillColor=#fff2cc;strokeColor=#d6b656;" vertex="1" parent="1">
          <mxGeometry x="160" y="44" width="140" height="50" as="geometry" />
        </mxCell>
        <mxCell id="8SR--FJlMm__Suw2POkN-42" value="&lt;font style=&quot;font-size: 16px;&quot;&gt;动作编排&lt;/font&gt;" style="rounded=1;whiteSpace=wrap;html=1;fillColor=#fff2cc;strokeColor=#d6b656;" vertex="1" parent="1">
          <mxGeometry x="320" y="44" width="140" height="50" as="geometry" />
        </mxCell>
        <mxCell id="8SR--FJlMm__Suw2POkN-43" value="&lt;font style=&quot;font-size: 16px;&quot;&gt;视觉信息理解&lt;/font&gt;" style="rounded=1;whiteSpace=wrap;html=1;fillColor=#fff2cc;strokeColor=#d6b656;" vertex="1" parent="1">
          <mxGeometry x="480" y="44" width="140" height="50" as="geometry" />
        </mxCell>
        <mxCell id="8SR--FJlMm__Suw2POkN-44" value="&lt;font style=&quot;font-size: 16px;&quot;&gt;响应输出&lt;/font&gt;" style="rounded=1;whiteSpace=wrap;html=1;fillColor=#fff2cc;strokeColor=#d6b656;" vertex="1" parent="1">
          <mxGeometry x="640" y="44" width="140" height="50" as="geometry" />
        </mxCell>
        <mxCell id="8SR--FJlMm__Suw2POkN-45" value="&lt;font style=&quot;font-size: 16px;&quot;&gt;IMU&lt;/font&gt;" style="rounded=1;whiteSpace=wrap;html=1;fillColor=#fff2cc;strokeColor=#d6b656;" vertex="1" parent="1">
          <mxGeometry x="480" y="534" width="140" height="50" as="geometry" />
        </mxCell>
      </root>
    </mxGraphModel>
  </diagram>
</mxfile>
